<?xml version="1.0" standalone="no"?><!DOCTYPE svg PUBLIC "-//W3C//DTD SVG 1.1//EN" "http://www.w3.org/Graphics/SVG/1.1/DTD/svg11.dtd"><svg t="1699783375576" class="icon" viewBox="0 0 1024 1024" version="1.1" xmlns="http://www.w3.org/2000/svg" p-id="7773" xmlns:xlink="http://www.w3.org/1999/xlink" width="200" height="200"><path d="M512 896c-106 0-192-86-192-192s86-192 192-192 192-86 192-192-86-192-192-192c212 0 384 172 384 384s-172 384-384 384z" opacity=".2" p-id="7774"></path><path d="M512 928c-229.2 0-416-186.8-416-416S282.8 96 512 96s416 186.8 416 416-186.8 416-416 416z m0-768c-194 0-352 158-352 352s158 352 352 352 352-158 352-352-158-352-352-352z" p-id="7775"></path><path d="M512 704m-48 0a48 48 0 1 0 96 0 48 48 0 1 0-96 0Z" p-id="7776"></path><path d="M512 928c-123.6 0-224-100.4-224-224s100.4-224 224-224c88.4 0 160-71.6 160-160s-71.6-160-160-160c-17.6 0-32-14.4-32-32s14.4-32 32-32c123.6 0 224 100.4 224 224s-100.4 224-224 224c-88.4 0-160 71.6-160 160s71.6 160 160 160c17.6 0 32 14.4 32 32s-14.4 32-32 32z" p-id="7777"></path><path d="M512 320m-48 0a48 48 0 1 0 96 0 48 48 0 1 0-96 0Z" p-id="7778"></path></svg>