<?xml version="1.0" standalone="no"?><!DOCTYPE svg PUBLIC "-//W3C//DTD SVG 1.1//EN" "http://www.w3.org/Graphics/SVG/1.1/DTD/svg11.dtd"><svg t="1699783386331" class="icon" viewBox="0 0 1044 1024" version="1.1" xmlns="http://www.w3.org/2000/svg" p-id="8863" xmlns:xlink="http://www.w3.org/1999/xlink" width="203.90625" height="200"><path d="M567.416471 567.215686m-411.607844 0a411.607843 411.607843 0 1 0 823.215687 0 411.607843 411.607843 0 1 0-823.215687 0Z" fill="#ACACFF" p-id="8864"></path><path d="M512.200784 1024c-3.011765 0-27.105882-0.501961-31.623529-1.003922C211.024314 1006.431373 0.200784 782.054902 0.200784 512c0-133.521569 51.2-260.015686 144.062745-355.890196C236.624314 60.235294 361.110588 5.019608 494.130196 0.501961l21.584314-0.501961c135.027451 1.003922 262.023529 53.709804 357.898039 149.082353 95.87451 95.372549 149.082353 221.866667 151.090196 356.894118v6.023529c-0.501961 282.101961-230.4 512-512.501961 512z m-9.035294-483.890196c-117.960784 0-213.835294 95.87451-213.835294 213.835294 0 109.929412 85.835294 203.796078 195.262745 213.333333 4.517647 0.501961 24.596078 0.501961 41.160784 0.501961h6.525491c116.454902-5.019608 226.384314-55.215686 308.203921-140.549019 82.321569-85.835294 127.498039-197.772549 127.498039-315.231373v-3.011765c-1.003922-158.619608-86.839216-306.196078-222.368627-388.015686 29.113725 44.172549 45.176471 95.372549 45.176471 148.580392 0 149.082353-120.972549 270.054902-270.054902 270.054902h-17.568628zM496.138039 56.219608c-117.960784 4.517647-228.894118 53.709804-311.215686 139.043137C102.098824 281.098039 55.918431 393.537255 55.918431 512c0 161.631373 86.337255 310.713725 223.372549 392.031373-30.117647-44.172549-46.180392-95.87451-46.180392-150.086275 0-149.082353 120.972549-270.054902 270.054902-270.054902h18.070588c117.960784 0 213.835294-95.87451 213.835295-213.835294 0-111.435294-81.317647-202.792157-188.737255-212.831373l-50.196079-1.003921z m34.133334 770.509804c-35.137255 0-63.74902-28.611765-63.74902-63.74902s28.611765-63.74902 63.74902-63.749019c17.066667 0 33.129412 6.52549 45.17647 18.572549s18.572549 28.109804 18.572549 45.17647c0 35.137255-28.611765 63.74902-63.749019 63.74902z m0-483.890196c-35.137255 0-63.74902-28.611765-63.74902-63.74902 0-35.137255 28.611765-63.74902 63.74902-63.74902 35.137255 0 63.74902 28.611765 63.749019 63.74902 0 35.137255-28.611765 63.74902-63.749019 63.74902z" fill="#333333" p-id="8865"></path></svg>