<?xml version="1.0" standalone="no"?><!DOCTYPE svg PUBLIC "-//W3C//DTD SVG 1.1//EN" "http://www.w3.org/Graphics/SVG/1.1/DTD/svg11.dtd"><svg t="1689436750288" class="icon" viewBox="0 0 1024 1024" version="1.1" xmlns="http://www.w3.org/2000/svg" p-id="2540" xmlns:xlink="http://www.w3.org/1999/xlink" width="200" height="200"><path d="M520.13131852 786.52302222c-28.15620741 0-56.55514075-4.49042963-84.10453334-13.59265185-67.96325925-22.45214815-123.18340741-69.90506667-155.34459259-133.86334815-32.28254815-63.95828148-37.62251852-136.53333333-15.29173334-204.49659259 22.45214815-67.96325925 69.90506667-123.18340741 133.86334816-155.3445926 63.95828148-32.28254815 136.53333333-37.62251852 204.49659259-15.29173333 67.96325925 22.45214815 123.18340741 69.90506667 155.34459259 133.86334815 32.28254815 63.95828148 37.62251852 136.53333333 15.29173333 204.4965926-22.45214815 67.96325925-69.90506667 123.18340741-133.86334814 155.34459258-37.98660741 19.17534815-79.12865185 28.88438518-120.39205926 28.88438519zM451.19715555 726.81244445c114.93072592 37.86524445 239.2064-24.75804445 277.07164445-139.68877037 18.32580741-55.7056 13.95674075-115.17345185-12.50038518-167.4808889-26.33576297-52.30743703-71.60414815-91.26494815-127.18838519-109.59075555-55.7056-18.32580741-115.17345185-13.95674075-167.48088888 12.50038519-52.30743703 26.33576297-91.26494815 71.60414815-109.59075557 127.18838518-18.32580741 55.7056-13.95674075 115.17345185 12.50038519 167.48088889 26.33576297 52.30743703 71.48278518 91.26494815 127.18838518 109.59075556z" fill="#1296db" p-id="2541"></path><path d="M560.90927408 393.54974815m-28.88438519 0a28.88438518 28.88438518 0 1 0 57.76877036 0 28.88438518 28.88438518 0 1 0-57.76877036 0Z" fill="#A25C11" p-id="2542"></path><path d="M479.232 641.61564445m-28.88438518 0a28.88438518 28.88438518 0 1 0 57.76877036 0 28.88438518 28.88438518 0 1 0-57.76877036 0Z" fill="#A25C11" p-id="2543"></path><path d="M481.5378963 780.21214815c-15.17037037 0-30.4621037-2.42725925-45.63247408-7.40314074l15.17037037-46.11792593c51.09380741 16.86945185 106.31395555-11.04402963 123.18340741-62.13783703 8.13131852-24.75804445 6.18951111-51.21517037-5.5826963-74.51685927s-31.7970963-40.53522963-56.55514073-48.7879111c-76.45866667-25.2434963-118.20752592-108.01303703-93.0853926-184.47170371 12.25765925-37.0157037 38.10797037-67.11371852 72.93914074-84.71134815 34.83117037-17.59762963 74.3954963-20.51034075 111.53256297-8.25268147l-15.17037038 46.11792592c-24.75804445-8.13131852-51.21517037-6.18951111-74.51685925 5.5826963-23.30168889 11.77220741-40.53522963 31.7970963-48.78791112 56.55514073-16.86945185 51.09380741 11.04402963 106.31395555 62.13783704 123.18340741 37.0157037 12.25765925 67.11371852 38.10797037 84.71134815 72.93914074 17.59762963 34.83117037 20.51034075 74.3954963 8.25268148 111.53256297-19.90352592 61.53102222-77.18684445 100.48853333-138.5965037 100.48853333z" fill="#1296db" p-id="2544"></path><path d="M713.21979259 1009.46678518H326.43602963c-6.43223703 0-12.62174815-2.54862222-17.11217778-7.16041481L35.8930963 728.87561482c-4.61179259-4.61179259-7.16041482-10.67994075-7.16041482-17.11217779V325.10103703c0-6.43223703 2.54862222-12.62174815 7.16041482-17.11217778L309.32385185 34.43674075c4.61179259-4.61179259 10.67994075-7.16041482 17.11217778-7.16041483h386.6624c6.43223703 0 12.62174815 2.54862222 17.11217778 7.16041483l273.43075556 273.43075555c4.61179259 4.61179259 7.16041482 10.67994075 7.16041481 17.11217778v386.6624c0 6.43223703-2.54862222 12.62174815-7.16041481 17.11217777L730.33197037 1002.30637037c-4.61179259 4.61179259-10.67994075 7.16041482-17.11217778 7.16041481z m-376.71063704-48.54518518h366.63751112l259.23128888-259.23128889V335.0528L703.14666667 75.94287408H336.50915555L77.27786667 335.0528v366.63751111l259.23128888 259.23128889z" fill="#1296db" p-id="2545"></path><path d="M434.44906667 137.83798518h160.32047408v48.54518519H434.44906667zM434.44906667 850.4813037h160.32047408v48.54518519H434.44906667zM134.07573333 438.21131852h48.54518519v160.32047407h-48.54518519zM846.71905185 438.21131852h48.54518518v160.32047407h-48.54518518zM188.83834311 306.01671111l113.36271644-113.36271644 34.32630045 34.32630044-113.36271645 113.36271644z" fill="#A25C11" p-id="2546"></path><path d="M692.72401541 809.9145197l113.36150281-113.36271645 34.32630045 34.32630045-113.36150282 113.36271645z" fill="#A25C11" p-id="2547"></path><path d="M188.82499318 730.77251792l34.32630045-34.32630044 113.36271645 113.36271644-34.32630045 34.32630045z" fill="#A25C11" p-id="2548"></path><path d="M692.73857897 226.89170015l34.32630044-34.32630045 113.36271644 113.36271645-34.32630044 34.32630044z" fill="#A25C11" p-id="2549"></path></svg>